<?xml version="1.0" standalone="no"?>
<!DOCTYPE svg PUBLIC "-//W3C//DTD SVG 20010904//EN"
 "http://www.w3.org/TR/2001/REC-SVG-20010904/DTD/svg10.dtd">
<svg version="1.0" xmlns="http://www.w3.org/2000/svg"
 width="128.000000pt" height="128.000000pt" viewBox="0 0 128.000000 128.000000"
 preserveAspectRatio="xMidYMid meet">
<metadata>
Created by potrace 1.10, written by Peter Selinger 2001-2011
</metadata>
<g transform="translate(0.000000,128.000000) scale(0.100000,-0.100000)"
fill="#000000" stroke="none">
<path d="M797 1080 c-26 -11 -59 -27 -72 -36 l-25 -16 1 -332 c1 -182 4 -358
8 -391 6 -57 8 -61 46 -82 22 -12 58 -24 80 -28 l40 -6 -32 15 c-17 8 -36 23
-42 35 -7 13 -11 151 -11 413 l0 393 43 27 c49 32 33 35 -36 8z"/>
<path d="M467 970 c17 -10 37 -28 42 -39 7 -13 11 -135 11 -349 0 -328 0 -329
-22 -349 -13 -11 -32 -26 -43 -32 -18 -11 -16 -12 13 -7 19 3 53 14 76 25 43
18 43 20 50 80 4 34 4 191 0 350 l-7 290 -57 25 c-70 32 -111 36 -63 6z"/>
<path d="M363 645 c-37 -16 -53 -42 -53 -84 0 -110 134 -141 169 -39 17 47 13
65 -16 97 -35 37 -60 44 -100 26z m67 -24 c31 -58 -5 -170 -47 -145 -27 16
-39 76 -24 124 10 32 16 40 36 40 14 0 29 -8 35 -19z"/>
<path d="M889 645 c-81 -44 -47 -185 44 -185 42 0 87 49 87 95 0 47 -13 71
-50 90 -35 18 -47 18 -81 0z m81 -24 c15 -29 12 -104 -6 -129 -19 -27 -50 -29
-64 -3 -5 11 -10 41 -10 66 0 59 14 85 45 85 14 0 29 -8 35 -19z"/>
<path d="M120 618 l1 -33 24 30 c21 25 27 28 35 15 16 -24 12 -123 -6 -148
-15 -22 -14 -22 23 -22 l38 0 -3 75 c-2 41 -1 83 3 92 6 16 9 15 30 -11 24
-31 38 -25 24 12 -8 20 -15 22 -89 22 l-80 0 0 -32z"/>
<path d="M1055 555 l0 -95 42 0 c64 0 93 15 93 46 l0 27 -21 -27 c-11 -14 -29
-26 -40 -26 -17 0 -19 8 -19 85 l0 85 -27 0 -28 0 0 -95z"/>
</g>
</svg>
